<svg width="147" height="146" viewBox="0 0 147 146" fill="none" xmlns="http://www.w3.org/2000/svg">
<mask id="path-1-inside-1_22_456" fill="white">
<path d="M133.919 92.6891C137.626 93.6826 141.474 91.4842 142.092 87.696C143.429 79.5038 143.291 71.119 141.665 62.9412C139.585 52.4856 135.128 42.6486 128.638 34.1911C122.148 25.7336 113.8 18.8823 104.239 14.1673C94.678 9.45235 84.1604 7 73.5 7C62.8396 7 52.322 9.45235 42.7609 14.1673C33.1999 18.8823 24.8516 25.7336 18.3619 34.1911C11.8723 42.6486 7.41517 52.4856 5.33542 62.9412C3.70875 71.119 3.57055 79.5038 4.90772 87.696C5.52605 91.4842 9.37375 93.6826 13.0813 92.6891C16.7889 91.6957 18.9429 87.8848 18.4194 84.0823C17.5777 77.9674 17.7578 71.7386 18.9683 65.653C20.6321 57.2885 24.1978 49.4189 29.3896 42.6529C34.5813 35.8869 41.2599 30.4059 48.9087 26.6339C56.5576 22.8619 64.9716 20.9 73.5 20.9C82.0284 20.9 90.4424 22.8619 98.0913 26.6339C105.74 30.4059 112.419 35.8869 117.61 42.6529C122.802 49.4189 126.368 57.2885 128.032 65.653C129.242 71.7386 129.422 77.9674 128.581 84.0823C128.057 87.8848 130.211 91.6957 133.919 92.6891Z"/>
</mask>
<path d="M133.919 92.6891C137.626 93.6826 141.474 91.4842 142.092 87.696C143.429 79.5038 143.291 71.119 141.665 62.9412C139.585 52.4856 135.128 42.6486 128.638 34.1911C122.148 25.7336 113.8 18.8823 104.239 14.1673C94.678 9.45235 84.1604 7 73.5 7C62.8396 7 52.322 9.45235 42.7609 14.1673C33.1999 18.8823 24.8516 25.7336 18.3619 34.1911C11.8723 42.6486 7.41517 52.4856 5.33542 62.9412C3.70875 71.119 3.57055 79.5038 4.90772 87.696C5.52605 91.4842 9.37375 93.6826 13.0813 92.6891C16.7889 91.6957 18.9429 87.8848 18.4194 84.0823C17.5777 77.9674 17.7578 71.7386 18.9683 65.653C20.6321 57.2885 24.1978 49.4189 29.3896 42.6529C34.5813 35.8869 41.2599 30.4059 48.9087 26.6339C56.5576 22.8619 64.9716 20.9 73.5 20.9C82.0284 20.9 90.4424 22.8619 98.0913 26.6339C105.74 30.4059 112.419 35.8869 117.61 42.6529C122.802 49.4189 126.368 57.2885 128.032 65.653C129.242 71.7386 129.422 77.9674 128.581 84.0823C128.057 87.8848 130.211 91.6957 133.919 92.6891Z" stroke="#EFF2F5" stroke-width="24" stroke-linecap="round" mask="url(#path-1-inside-1_22_456)"/>
<rect y="84" width="28" height="28" rx="14" fill="white"/>
<path opacity="0.32" d="M2 109.68H26V85.68H2V109.68Z" fill="black"/>
<rect x="119" y="84" width="28" height="28" rx="14" fill="white"/>
<path opacity="0.32" d="M121 109.68H145V85.68H121V109.68Z" fill="white"/>
<rect x="60" width="28" height="28" rx="14" fill="white"/>
<path opacity="0.32" d="M62 25.68H86V1.68H62V25.68Z" fill="black"/>
</svg>
