<svg width="132" height="90" viewBox="0 0 132 90" fill="none" xmlns="http://www.w3.org/2000/svg">
<mask id="mask0_1701_35" style="mask-type:alpha" maskUnits="userSpaceOnUse" x="0" y="0" width="132" height="90">
<path d="M0 0H132V90L66 66L0 90V0Z" fill="#D9D9D9"/>
</mask>
<g mask="url(#mask0_1701_35)">
<path d="M66 109.347C65.8906 109.347 65.7813 109.347 65.6722 109.346L65.6673 109.999C64.5993 109.991 63.5403 109.945 62.4916 109.862L62.543 109.211C62.3263 109.194 62.1101 109.175 61.8944 109.155L61.8333 109.805C60.7715 109.706 59.7207 109.568 58.6822 109.394L58.79 108.75C58.5752 108.714 58.3609 108.677 58.1472 108.638L58.0297 109.28C56.9826 109.088 55.9485 108.86 54.9287 108.595L55.0926 107.963C54.8815 107.909 54.6711 107.852 54.4613 107.794L54.2879 108.424C53.2624 108.142 52.2519 107.823 51.2578 107.47L51.4766 106.854C51.2717 106.781 51.0675 106.707 50.8641 106.631L50.636 107.243C49.6399 106.872 48.6609 106.466 47.7005 106.026L47.9724 105.432C47.7748 105.342 47.578 105.25 47.382 105.156L47.1012 105.746C46.1424 105.289 45.2027 104.799 44.2837 104.276L44.6065 103.709C44.4174 103.601 44.2292 103.492 44.042 103.382L43.7107 103.945C42.7963 103.406 41.9031 102.836 41.0326 102.235L41.4037 101.698C41.2246 101.574 41.0466 101.449 40.8695 101.323L40.4905 101.855C39.6271 101.239 38.7868 100.594 37.9713 99.919L38.3876 99.4158C38.22 99.2772 38.0535 99.1373 37.888 98.9962L37.4642 99.4931C36.6579 98.8054 35.8767 98.0892 35.1222 97.3459L35.5806 96.8807C35.4257 96.7281 35.2719 96.5743 35.1193 96.4194L34.6541 96.8777C33.9108 96.1233 33.1946 95.3421 32.5069 94.5358L33.0038 94.112C32.8627 93.9465 32.7228 93.78 32.5842 93.6124L32.081 94.0287C31.4063 93.2132 30.7605 92.3729 30.1451 91.5095L30.6769 91.1304C30.5507 90.9534 30.4258 90.7754 30.3023 90.5963L29.7648 90.9673C29.1639 90.0969 28.5935 89.2037 28.0553 88.2893L28.618 87.958C28.5078 87.7708 28.3989 87.5826 28.2914 87.3935L27.7237 87.7163C27.2012 86.7973 26.7108 85.8576 26.2541 84.8988L26.8437 84.618C26.7503 84.422 26.6584 84.2252 26.5679 84.0276L25.9741 84.2995C25.5343 83.3391 25.128 82.3601 24.7568 81.364L25.3688 81.1359C25.293 80.9325 25.2186 80.7283 25.1458 80.5234L24.5304 80.7422C24.177 79.7481 23.8584 78.7376 23.5759 77.7121L24.2055 77.5387C24.1477 77.3289 24.0915 77.1185 24.0368 76.9074L23.4046 77.0713C23.1403 76.0515 22.9117 75.0174 22.7201 73.9703L23.3625 73.8528C23.3234 73.6391 23.2858 73.4248 23.2499 73.21L22.6058 73.3178C22.4319 72.2793 22.2944 71.2285 22.1947 70.1667L22.8449 70.1056C22.8246 69.8899 22.806 69.6737 22.7889 69.457L22.1378 69.5084C22.0551 68.4597 22.0091 67.4007 22.0012 66.3327L22.6543 66.3278C22.6535 66.2187 22.6531 66.1094 22.6531 66C22.6531 65.8906 22.6535 65.7813 22.6543 65.6722L22.0012 65.6673C22.0091 64.5993 22.0551 63.5403 22.1378 62.4916L22.7889 62.543C22.806 62.3263 22.8246 62.1101 22.8449 61.8944L22.1947 61.8333C22.2944 60.7715 22.4319 59.7207 22.6058 58.6822L23.2499 58.79C23.2858 58.5752 23.3234 58.3609 23.3625 58.1472L22.7201 58.0297C22.9117 56.9826 23.1403 55.9485 23.4046 54.9287L24.0368 55.0926C24.0915 54.8815 24.1477 54.6711 24.2055 54.4613L23.5759 54.2879C23.8584 53.2624 24.1771 52.2519 24.5304 51.2578L25.1458 51.4766C25.2186 51.2717 25.293 51.0675 25.3688 50.8641L24.7568 50.636C25.128 49.6399 25.5343 48.6609 25.9741 47.7005L26.5679 47.9724C26.6584 47.7748 26.7503 47.578 26.8437 47.382L26.2541 47.1012C26.7108 46.1424 27.2012 45.2027 27.7237 44.2837L28.2914 44.6065C28.3989 44.4174 28.5078 44.2292 28.618 44.042L28.0553 43.7107C28.5935 42.7963 29.1639 41.9031 29.7648 41.0326L30.3023 41.4037C30.4259 41.2246 30.5508 41.0466 30.6769 40.8695L30.1451 40.4905C30.7605 39.6271 31.4063 38.7868 32.081 37.9713L32.5842 38.3876C32.7228 38.22 32.8627 38.0535 33.0038 37.888L32.5069 37.4642C33.1946 36.6579 33.9108 35.8767 34.6541 35.1222L35.1193 35.5806C35.2719 35.4257 35.4257 35.2719 35.5806 35.1193L35.1223 34.6541C35.8767 33.9108 36.6579 33.1946 37.4643 32.5069L37.888 33.0038C38.0535 32.8627 38.22 32.7228 38.3876 32.5842L37.9713 32.081C38.7868 31.4063 39.6271 30.7605 40.4905 30.1451L40.8695 30.6769C41.0466 30.5507 41.2246 30.4258 41.4037 30.3023L41.0327 29.7648C41.9031 29.1639 42.7963 28.5935 43.7107 28.0553L44.042 28.618C44.2292 28.5078 44.4174 28.3989 44.6065 28.2914L44.2837 27.7237C45.2027 27.2012 46.1424 26.7108 47.1012 26.2541L47.382 26.8437C47.578 26.7503 47.7748 26.6584 47.9724 26.5679L47.7005 25.9741C48.6609 25.5343 49.6399 25.128 50.636 24.7568L50.8641 25.3688C51.0675 25.293 51.2717 25.2186 51.4766 25.1458L51.2578 24.5304C52.2519 24.177 53.2624 23.8584 54.2879 23.5759L54.4613 24.2055C54.6711 24.1477 54.8815 24.0915 55.0926 24.0368L54.9287 23.4046C55.9485 23.1403 56.9826 22.9117 58.0297 22.7201L58.1472 23.3625C58.3609 23.3234 58.5752 23.2858 58.79 23.2499L58.6822 22.6058C59.7207 22.4319 60.7715 22.2944 61.8333 22.1947L61.8944 22.8449C62.1101 22.8246 62.3263 22.806 62.543 22.7889L62.4916 22.1378C63.5403 22.0551 64.5993 22.0091 65.6673 22.0012L65.6722 22.6543C65.7813 22.6535 65.8906 22.6531 66 22.6531C66.1094 22.6531 66.2187 22.6535 66.3278 22.6543L66.3327 22.0012C67.4007 22.0091 68.4597 22.0551 69.5084 22.1378L69.457 22.7889C69.6737 22.806 69.8899 22.8246 70.1056 22.8449L70.1667 22.1947C71.2285 22.2944 72.2793 22.4319 73.3178 22.6058L73.21 23.2499C73.4248 23.2858 73.6391 23.3234 73.8528 23.3625L73.9703 22.7201C75.0174 22.9117 76.0515 23.1403 77.0713 23.4046L76.9074 24.0368C77.1185 24.0915 77.3289 24.1477 77.5387 24.2055L77.7121 23.5759C78.7376 23.8584 79.7481 24.1771 80.7422 24.5304L80.5234 25.1458C80.7283 25.2186 80.9325 25.293 81.1359 25.3688L81.364 24.7568C82.3601 25.128 83.3391 25.5343 84.2995 25.9741L84.0276 26.5679C84.2252 26.6584 84.422 26.7503 84.618 26.8437L84.8988 26.2541C85.8576 26.7108 86.7973 27.2012 87.7163 27.7237L87.3935 28.2914C87.5826 28.3989 87.7708 28.5078 87.958 28.618L88.2893 28.0553C89.2037 28.5935 90.0969 29.1639 90.9674 29.7648L90.5963 30.3023C90.7754 30.4259 90.9534 30.5508 91.1305 30.6769L91.5095 30.1451C92.3729 30.7605 93.2132 31.4063 94.0287 32.081L93.6124 32.5842C93.78 32.7228 93.9465 32.8627 94.112 33.0038L94.5358 32.5069C95.3421 33.1946 96.1233 33.9108 96.8778 34.6541L96.4194 35.1193C96.5743 35.2719 96.7281 35.4257 96.8807 35.5806L97.3459 35.1223C98.0892 35.8767 98.8054 36.6579 99.4931 37.4643L98.9962 37.888C99.1373 38.0535 99.2772 38.22 99.4158 38.3876L99.919 37.9713C100.594 38.7869 101.239 39.6271 101.855 40.4905L101.323 40.8696C101.449 41.0466 101.574 41.2246 101.698 41.4037L102.235 41.0327C102.836 41.9031 103.406 42.7963 103.945 43.7107L103.382 44.042C103.492 44.2292 103.601 44.4174 103.709 44.6065L104.276 44.2837C104.799 45.2027 105.289 46.1424 105.746 47.1012L105.156 47.382C105.25 47.578 105.342 47.7748 105.432 47.9724L106.026 47.7005C106.466 48.6609 106.872 49.6399 107.243 50.636L106.631 50.8641C106.707 51.0675 106.781 51.2717 106.854 51.4766L107.47 51.2578C107.823 52.2519 108.142 53.2624 108.424 54.2879L107.794 54.4613C107.852 54.6711 107.909 54.8815 107.963 55.0926L108.595 54.9287C108.86 55.9485 109.088 56.9826 109.28 58.0297L108.638 58.1472C108.677 58.3609 108.714 58.5752 108.75 58.79L109.394 58.6822C109.568 59.7207 109.706 60.7715 109.805 61.8333L109.155 61.8944C109.175 62.1101 109.194 62.3263 109.211 62.543L109.862 62.4916C109.945 63.5403 109.991 64.5993 109.999 65.6673L109.346 65.6722C109.347 65.7813 109.347 65.8906 109.347 66C109.347 66.1094 109.347 66.2187 109.346 66.3278L109.999 66.3327C109.991 67.4007 109.945 68.4597 109.862 69.5084L109.211 69.457C109.194 69.6737 109.175 69.8899 109.155 70.1056L109.805 70.1667C109.706 71.2285 109.568 72.2793 109.394 73.3178L108.75 73.21C108.714 73.4248 108.677 73.6391 108.638 73.8528L109.28 73.9703C109.088 75.0174 108.86 76.0515 108.595 77.0713L107.963 76.9074C107.909 77.1185 107.852 77.3289 107.794 77.5387L108.424 77.7121C108.142 78.7376 107.823 79.7481 107.47 80.7422L106.854 80.5234C106.781 80.7283 106.707 80.9325 106.631 81.1359L107.243 81.364C106.872 82.3601 106.466 83.3391 106.026 84.2995L105.432 84.0276C105.342 84.2252 105.25 84.422 105.156 84.618L105.746 84.8988C105.289 85.8576 104.799 86.7973 104.276 87.7163L103.709 87.3935C103.601 87.5826 103.492 87.7708 103.382 87.958L103.945 88.2893C103.406 89.2037 102.836 90.0969 102.235 90.9674L101.698 90.5963C101.574 90.7754 101.449 90.9534 101.323 91.1305L101.855 91.5095C101.239 92.3729 100.594 93.2132 99.919 94.0287L99.4158 93.6124C99.2772 93.78 99.1373 93.9465 98.9962 94.112L99.4931 94.5358C98.8054 95.3421 98.0892 96.1233 97.3459 96.8778L96.8807 96.4194C96.7281 96.5743 96.5743 96.7281 96.4194 96.8807L96.8777 97.3459C96.1233 98.0892 95.3421 98.8054 94.5357 99.4931L94.112 98.9962C93.9465 99.1373 93.78 99.2772 93.6124 99.4158L94.0287 99.919C93.2132 100.594 92.3729 101.239 91.5095 101.855L91.1304 101.323C90.9534 101.449 90.7754 101.574 90.5963 101.698L90.9673 102.235C90.0969 102.836 89.2037 103.406 88.2893 103.945L87.958 103.382C87.7708 103.492 87.5826 103.601 87.3935 103.709L87.7163 104.276C86.7973 104.799 85.8576 105.289 84.8988 105.746L84.618 105.156C84.422 105.25 84.2252 105.342 84.0276 105.432L84.2995 106.026C83.3391 106.466 82.3601 106.872 81.364 107.243L81.1359 106.631C80.9325 106.707 80.7283 106.781 80.5234 106.854L80.7422 107.47C79.7481 107.823 78.7376 108.142 77.7121 108.424L77.5387 107.794C77.3289 107.852 77.1185 107.909 76.9074 107.963L77.0713 108.595C76.0515 108.86 75.0174 109.088 73.9703 109.28L73.8528 108.638C73.6391 108.677 73.4248 108.714 73.21 108.75L73.3178 109.394C72.2793 109.568 71.2285 109.706 70.1667 109.805L70.1056 109.155C69.8899 109.175 69.6737 109.194 69.457 109.211L69.5084 109.862C68.4597 109.945 67.4007 109.991 66.3327 109.999L66.3278 109.346C66.2187 109.347 66.1094 109.347 66 109.347Z" stroke="#D9D9D9" stroke-width="1.30612" stroke-dasharray="0.65 3.13"/>
<mask id="mask1_1701_35" style="mask-type:alpha" maskUnits="userSpaceOnUse" x="0" y="0" width="132" height="90">
<path d="M0 0H132V90L66 66L0 90V0Z" fill="#D9D9D9"/>
</mask>
<g mask="url(#mask1_1701_35)">
<path opacity="0.48" d="M61.8648 115.831C62.9748 115.922 64.095 115.977 65.2243 115.994L65.1051 123.83C65.4029 123.834 65.7012 123.837 66 123.837C66.2988 123.837 66.5971 123.834 66.8949 123.83L66.7757 115.994C67.905 115.977 69.0252 115.922 70.1352 115.831L70.7746 123.642C71.3693 123.593 71.9617 123.536 72.5515 123.469L71.6722 115.682C72.7932 115.555 73.903 115.392 75.0003 115.192L76.4018 122.903C76.9893 122.796 77.5739 122.68 78.1552 122.556L76.5151 114.892C77.6169 114.657 78.7052 114.384 79.7788 114.077L81.9342 121.612C82.5084 121.448 83.0789 121.275 83.6457 121.093L81.2568 113.63C82.3287 113.286 83.3849 112.908 84.424 112.496L87.313 119.781C87.868 119.561 88.4186 119.332 88.9649 119.096L85.8508 111.904C86.8826 111.458 87.8963 110.977 88.8906 110.464L92.4833 117.429C93.0134 117.155 93.5388 116.874 94.0591 116.585L90.2524 109.735C91.2343 109.189 92.1959 108.611 93.1357 108.003L97.3945 114.581C97.8949 114.258 98.3898 113.926 98.8793 113.587L94.4196 107.143C95.3426 106.505 96.2431 105.836 97.1196 105.138L102.001 111.269C102.467 110.898 102.927 110.52 103.381 110.135L98.3135 104.157C99.1691 103.431 100 102.678 100.805 101.897L106.26 107.523C106.688 107.109 107.109 106.688 107.523 106.26L101.897 100.805C102.678 100 103.432 99.1691 104.157 98.3135L110.135 103.381C110.52 102.927 110.898 102.467 111.269 102.001L105.138 97.1196C105.836 96.2431 106.505 95.3426 107.143 94.4196L113.587 98.8793C113.926 98.3898 114.258 97.8949 114.581 97.3945L108.003 93.1357C108.611 92.1959 109.189 91.2343 109.735 90.2524L116.585 94.0591C116.874 93.5388 117.155 93.0134 117.429 92.4833L110.464 88.8906C110.977 87.8963 111.458 86.8826 111.904 85.8508L119.096 88.9649C119.332 88.4186 119.561 87.868 119.781 87.313L112.496 84.424C112.908 83.3849 113.286 82.3288 113.63 81.2568L121.093 83.6457C121.275 83.0789 121.448 82.5084 121.612 81.9342L114.077 79.7788C114.384 78.7053 114.657 77.6169 114.892 76.5151L122.556 78.1552C122.68 77.5739 122.796 76.9894 122.903 76.4018L115.192 75.0003C115.392 73.903 115.555 72.7932 115.682 71.6722L123.469 72.5515C123.536 71.9617 123.593 71.3694 123.642 70.7746L115.831 70.1352C115.922 69.0252 115.977 67.905 115.994 66.7757L123.83 66.8949C123.834 66.5971 123.837 66.2988 123.837 66C123.837 65.7012 123.834 65.4029 123.83 65.1051L115.994 65.2243C115.977 64.095 115.922 62.9748 115.831 61.8648L123.642 61.2254C123.593 60.6307 123.536 60.0383 123.469 59.4485L115.682 60.3278C115.555 59.2068 115.392 58.097 115.192 56.9997L122.903 55.5982C122.796 55.0107 122.68 54.4261 122.556 53.8448L114.892 55.4849C114.657 54.3831 114.384 53.2948 114.077 52.2212L121.612 50.0658C121.448 49.4916 121.275 48.9211 121.093 48.3543L113.63 50.7432C113.286 49.6713 112.908 48.6151 112.496 47.576L119.781 44.687C119.561 44.132 119.332 43.5814 119.096 43.0351L111.904 46.1492C111.458 45.1174 110.977 44.1037 110.464 43.1094L117.429 39.5167C117.155 38.9866 116.874 38.4612 116.585 37.9409L109.735 41.7476C109.189 40.7657 108.611 39.8041 108.003 38.8642L114.581 34.6055C114.258 34.1051 113.926 33.6102 113.587 33.1207L107.143 37.5804C106.505 36.6574 105.836 35.7569 105.138 34.8804L111.269 29.9991C110.898 29.5332 110.52 29.0731 110.135 28.6191L104.157 33.6865C103.431 32.8309 102.678 31.9999 101.897 31.1952L107.523 25.7395C107.109 25.3121 106.688 24.8911 106.26 24.4767L100.805 30.1025C100 29.3221 99.1691 28.5685 98.3134 27.8432L103.381 21.8653C102.927 21.4804 102.467 21.1024 102.001 20.7314L97.1196 26.8622C96.2431 26.1644 95.3426 25.4954 94.4196 24.8566L98.8793 18.4125C98.3898 18.0738 97.8949 17.7424 97.3945 17.4185L93.1357 23.9971C92.1959 23.3886 91.2343 22.8108 90.2524 22.2652L94.0591 15.4151C93.5388 15.126 93.0134 14.8446 92.4833 14.5711L88.8906 21.5358C87.8963 21.0229 86.8826 20.5423 85.8508 20.0955L88.9649 12.9041C88.4186 12.6676 87.868 12.4392 87.313 12.2191L84.424 19.5039C83.3849 19.0918 82.3288 18.7135 81.2568 18.3704L83.6457 10.9067C83.0789 10.7253 82.5084 10.5524 81.9342 10.3881L79.7788 17.9226C78.7053 17.6155 77.6169 17.3434 76.5151 17.1076L78.1552 9.4444C77.5739 9.31997 76.9894 9.20429 76.4018 9.09749L75.0003 16.8079C73.903 16.6084 72.7932 16.4448 71.6722 16.3182L72.5515 8.53095C71.9617 8.46435 71.3694 8.40664 70.7746 8.35795L70.1352 16.1686C69.0252 16.0777 67.905 16.0231 66.7757 16.0059L66.8949 8.17007C66.5971 8.16554 66.2988 8.16327 66 8.16327C65.7012 8.16327 65.4029 8.16554 65.1051 8.17007L65.2243 16.0059C64.095 16.0231 62.9748 16.0777 61.8648 16.1686L61.2254 8.35795C60.6307 8.40664 60.0383 8.46434 59.4485 8.53094L60.3278 16.3182C59.2068 16.4448 58.097 16.6084 56.9997 16.8079L55.5982 9.09749C55.0107 9.20428 54.4261 9.31997 53.8448 9.4444L55.4849 17.1076C54.3831 17.3434 53.2948 17.6155 52.2212 17.9226L50.0658 10.3881C49.4916 10.5524 48.9211 10.7253 48.3543 10.9067L50.7432 18.3704C49.6713 18.7135 48.6151 19.0918 47.576 19.5039L44.687 12.2191C44.1321 12.4392 43.5814 12.6675 43.0351 12.9041L46.1492 20.0955C45.1174 20.5423 44.1037 21.0229 43.1094 21.5358L39.5167 14.5711C38.9866 14.8446 38.4612 15.126 37.9409 15.4151L41.7476 22.2652C40.7657 22.8108 39.8041 23.3886 38.8642 23.9971L34.6055 17.4185C34.1051 17.7424 33.6102 18.0738 33.1207 18.4125L37.5804 24.8566C36.6574 25.4954 35.7569 26.1644 34.8804 26.8622L29.9991 20.7314C29.5332 21.1024 29.0731 21.4804 28.6191 21.8653L33.6865 27.8432C32.8309 28.5685 31.9999 29.3221 31.1952 30.1025L25.7395 24.4767C25.3121 24.8911 24.8911 25.3121 24.4767 25.7395L30.1025 31.1952C29.3221 31.9999 28.5685 32.8309 27.8432 33.6865L21.8653 28.6191C21.4804 29.0731 21.1024 29.5332 20.7314 29.9991L26.8622 34.8804C26.1644 35.7569 25.4954 36.6574 24.8566 37.5804L18.4125 33.1207C18.0738 33.6102 17.7424 34.1051 17.4185 34.6055L23.9971 38.8643C23.3886 39.8041 22.8108 40.7657 22.2652 41.7476L15.4151 37.9409C15.126 38.4612 14.8446 38.9866 14.5711 39.5167L21.5358 43.1094C21.0229 44.1037 20.5423 45.1174 20.0955 46.1492L12.9041 43.0351C12.6676 43.5814 12.4392 44.132 12.2191 44.687L19.5039 47.576C19.0918 48.6151 18.7135 49.6712 18.3704 50.7432L10.9067 48.3543C10.7253 48.9211 10.5524 49.4916 10.3881 50.0658L17.9226 52.2212C17.6155 53.2947 17.3434 54.3831 17.1076 55.4849L9.4444 53.8448C9.31997 54.4261 9.20429 55.0106 9.09749 55.5982L16.8079 56.9997C16.6084 58.097 16.4448 59.2068 16.3182 60.3278L8.53095 59.4485C8.46435 60.0383 8.40664 60.6306 8.35795 61.2254L16.1686 61.8648C16.0777 62.9748 16.0231 64.095 16.0059 65.2243L8.17007 65.1051C8.16554 65.4029 8.16327 65.7012 8.16327 66C8.16327 66.2988 8.16554 66.5971 8.17007 66.8949L16.0059 66.7757C16.0231 67.905 16.0777 69.0252 16.1686 70.1352L8.35795 70.7746C8.40664 71.3693 8.46434 71.9617 8.53094 72.5515L16.3182 71.6722C16.4448 72.7932 16.6084 73.903 16.8079 75.0003L9.09749 76.4018C9.20428 76.9893 9.31997 77.5739 9.4444 78.1552L17.1076 76.5151C17.3434 77.6169 17.6155 78.7052 17.9226 79.7788L10.3881 81.9342C10.5524 82.5084 10.7253 83.0789 10.9067 83.6457L18.3704 81.2568C18.7135 82.3287 19.0918 83.3849 19.5039 84.424L12.2191 87.313C12.4392 87.868 12.6675 88.4186 12.9041 88.9649L20.0955 85.8508C20.5423 86.8826 21.0229 87.8963 21.5358 88.8906L14.5711 92.4833C14.8446 93.0134 15.126 93.5388 15.4151 94.0591L22.2652 90.2524C22.8108 91.2343 23.3886 92.1959 23.9971 93.1357L17.4185 97.3945C17.7424 97.8949 18.0738 98.3898 18.4125 98.8793L24.8566 94.4196C25.4954 95.3426 26.1644 96.2431 26.8622 97.1196L20.7314 102.001C21.1024 102.467 21.4804 102.927 21.8653 103.381L27.8432 98.3135C28.5685 99.1691 29.3221 100 30.1025 100.805L24.4767 106.26C24.8911 106.688 25.3121 107.109 25.7395 107.523L31.1952 101.897C31.9999 102.678 32.8309 103.432 33.6866 104.157L28.6191 110.135C29.0731 110.52 29.5332 110.898 29.9991 111.269L34.8804 105.138C35.7569 105.836 36.6574 106.505 37.5804 107.143L33.1207 113.587C33.6102 113.926 34.1051 114.258 34.6055 114.581L38.8643 108.003C39.8041 108.611 40.7657 109.189 41.7476 109.735L37.9409 116.585C38.4612 116.874 38.9866 117.155 39.5167 117.429L43.1094 110.464C44.1037 110.977 45.1174 111.458 46.1492 111.904L43.0351 119.096C43.5814 119.332 44.132 119.561 44.687 119.781L47.576 112.496C48.6151 112.908 49.6712 113.286 50.7432 113.63L48.3543 121.093C48.9211 121.275 49.4916 121.448 50.0658 121.612L52.2212 114.077C53.2947 114.384 54.3831 114.657 55.4849 114.892L53.8448 122.556C54.4261 122.68 55.0106 122.796 55.5982 122.903L56.9997 115.192C58.097 115.392 59.2068 115.555 60.3278 115.682L59.4485 123.469C60.0383 123.536 60.6306 123.593 61.2254 123.642L61.8648 115.831Z" stroke="#D9D9D9" stroke-width="15.6735" stroke-dasharray="1.5 3.27"/>
</g>
</g>
</svg>
